<svg xmlns="http://www.w3.org/2000/svg" viewBox="0 0 36 36"><title>icon-insta</title><g id="10d51025-b357-45e4-bf3d-5ca21d13d331" data-name="Circle Color"><path d="M12,18a6,6,0,1,1,6,6,6,6,0,0,1-6-6M8.757,18A9.243,9.243,0,1,0,18,8.757,9.243,9.243,0,0,0,8.757,18M25.449,8.391a2.16,2.16,0,1,0,2.16-2.159,2.161,2.161,0,0,0-2.16,2.159M10.727,32.651a9.92,9.92,0,0,1-3.342-.619,5.578,5.578,0,0,1-2.07-1.347,5.574,5.574,0,0,1-1.347-2.069,9.993,9.993,0,0,1-.62-3.343c-.086-1.9-.1-2.467-.1-7.273s.019-5.375.1-7.274a9.991,9.991,0,0,1,.62-3.342,5.586,5.586,0,0,1,1.347-2.07,5.576,5.576,0,0,1,2.07-1.346,9.965,9.965,0,0,1,3.342-.62c1.9-.086,2.467-.1,7.273-.1s5.375.019,7.274.1a9.965,9.965,0,0,1,3.342.62,5.576,5.576,0,0,1,2.07,1.346,5.584,5.584,0,0,1,1.346,2.07,9.939,9.939,0,0,1,.62,3.342c.087,1.9.1,2.468.1,7.274s-.018,5.375-.1,7.273a9.941,9.941,0,0,1-.62,3.343,5.962,5.962,0,0,1-3.416,3.416,9.92,9.92,0,0,1-3.342.619c-1.9.087-2.467.106-7.274.106s-5.375-.019-7.273-.106M10.579.109A13.174,13.174,0,0,0,6.21.945,8.809,8.809,0,0,0,3.022,3.021,8.792,8.792,0,0,0,.946,6.209a13.178,13.178,0,0,0-.837,4.37C.021,12.5,0,13.111,0,18s.021,5.5.109,7.421A13.16,13.16,0,0,0,.946,29.79a8.8,8.8,0,0,0,2.076,3.189A8.809,8.809,0,0,0,6.21,35.055a13.2,13.2,0,0,0,4.369.836C12.5,35.979,13.112,36,18,36s5.5-.021,7.422-.109a13.2,13.2,0,0,0,4.369-.836,9.2,9.2,0,0,0,5.264-5.265,13.186,13.186,0,0,0,.837-4.369C35.98,23.5,36,22.889,36,18s-.02-5.5-.108-7.421a13.2,13.2,0,0,0-.837-4.37,8.818,8.818,0,0,0-2.076-3.188A8.818,8.818,0,0,0,29.791.945,13.174,13.174,0,0,0,25.422.109C23.5.021,22.889,0,18,0s-5.5.021-7.421.109" fill="#fff"/></g></svg>