<svg xmlns="http://www.w3.org/2000/svg" viewBox="0 0 49 36"><title>icon-yt</title><g id="c0abe53f-219a-4bb1-9c56-d15ca653f8da" data-name="Circle Color"><path d="M47.843,6.273a6.1,6.1,0,0,0-4.307-4.308C39.736.947,24.5.947,24.5.947S9.264.947,5.464,1.965A6.1,6.1,0,0,0,1.157,6.273C.138,10.072.138,18,.138,18s0,7.928,1.019,11.727a6.1,6.1,0,0,0,4.307,4.308c3.8,1.018,19.036,1.018,19.036,1.018s15.236,0,19.036-1.018a6.1,6.1,0,0,0,4.307-4.308C48.862,25.928,48.862,18,48.862,18S48.862,10.072,47.843,6.273ZM19.628,25.308V10.692L32.286,18Z" fill="#fff"/></g></svg>