<svg xmlns="http://www.w3.org/2000/svg" viewBox="0 0 37 36"><path d="M18.5,0a18.044,18.044,0,0,0-1.784,36h3.568A18.044,18.044,0,0,0,18.5,0Zm8.275,26.025a1.123,1.123,0,0,1-1.546.374c-4.238-2.589-9.57-3.174-15.851-1.74a1.124,1.124,0,1,1-.5-2.191c6.873-1.572,12.769-.9,17.525,2.011A1.124,1.124,0,0,1,26.775,26.025Zm2.208-4.913a1.407,1.407,0,0,1-1.935.463c-4.849-2.98-12.243-3.844-17.98-2.1a1.407,1.407,0,1,1-.817-2.692,26.318,26.318,0,0,1,20.269,2.4A1.408,1.408,0,0,1,28.983,21.112ZM29.173,16c-5.816-3.454-15.41-3.772-20.962-2.087a1.688,1.688,0,1,1-.98-3.23C13.605,8.745,24.2,9.119,30.9,13.093A1.688,1.688,0,1,1,29.173,16Z" fill="#000"/></svg>