<svg xmlns="http://www.w3.org/2000/svg" viewBox="0 0 39 36"><path id="1e55ca85-17ca-4fb4-a8fa-037e3c46eb8a" data-name="Twitter" d="M38.974,5.921a15.97,15.97,0,0,1-4.589,1.258A8.011,8.011,0,0,0,37.9,2.758,16,16,0,0,1,32.824,4.7a8,8,0,0,0-13.617,7.288A22.682,22.682,0,0,1,2.737,3.636,8,8,0,0,0,5.21,14.305a7.969,7.969,0,0,1-3.619-1c0,.033,0,.067,0,.1A8,8,0,0,0,8,21.241a8.023,8.023,0,0,1-3.609.137,8,8,0,0,0,7.465,5.549,16.028,16.028,0,0,1-9.924,3.421,16.2,16.2,0,0,1-1.906-.112,22.609,22.609,0,0,0,12.249,3.59c14.7,0,22.735-12.176,22.735-22.735,0-.347-.007-.691-.023-1.034A16.231,16.231,0,0,0,38.974,5.921Z" fill="#000"/></svg>