<svg xmlns="http://www.w3.org/2000/svg" viewBox="0 0 60 36"><title>icon-sc</title><path d="M.778,16.488a.248.248,0,0,0-.24.234L.1,20.043l.437,3.265a.247.247,0,0,0,.24.233.25.25,0,0,0,.239-.232h0l.518-3.266-.518-3.322A.251.251,0,0,0,.778,16.488Zm2.459-1.814a.249.249,0,0,0-.5,0l-.588,5.369L2.74,25.3a.249.249,0,0,0,.5,0l.669-5.253ZM12.5,9.72a.46.46,0,0,0-.452.448l-.468,9.88.468,6.386a.452.452,0,0,0,.9,0v0l.53-6.386-.53-9.88A.463.463,0,0,0,12.5,9.72ZM7.706,13.154a.358.358,0,0,0-.35.345l-.528,6.547.528,6.333a.358.358,0,0,0,.35.344.361.361,0,0,0,.351-.344l.6-6.333-.6-6.548A.361.361,0,0,0,7.706,13.154Zm9.667,13.725a.561.561,0,0,0,.554-.55l.46-6.278L17.927,6.9a.555.555,0,0,0-1.109,0l-.407,13.153.407,6.28A.559.559,0,0,0,17.373,26.879Zm9.974.03a.768.768,0,0,0,.758-.756v0l.321-6.1L28.105,4.863a.759.759,0,0,0-1.517,0L26.3,20.05c0,.01.286,6.107.286,6.107A.766.766,0,0,0,27.347,26.909Zm-5.025-.024a.662.662,0,0,0,.656-.654v0l.39-6.183L22.978,6.8a.657.657,0,0,0-1.314,0l-.347,13.25.348,6.181A.657.657,0,0,0,22.322,26.885Zm-12.228-.058a.41.41,0,0,0,.4-.4l.565-6.386L10.5,13.97a.4.4,0,0,0-.8,0l-.5,6.073.5,6.385A.407.407,0,0,0,10.094,26.827Zm-4.756-.35a.309.309,0,0,0,.3-.293l.634-6.14-.633-6.372a.311.311,0,0,0-.3-.293.307.307,0,0,0-.3.293L4.48,20.044l.558,6.139A.307.307,0,0,0,5.338,26.477ZM24.825,6.583a.709.709,0,0,0-.709.705L23.8,20.054l.316,6.142a.708.708,0,0,0,1.416,0v0l.355-6.143L25.532,7.287A.709.709,0,0,0,24.825,6.583Zm-9.9,20.309a.513.513,0,0,0,.5-.5l.494-6.343L15.431,7.91a.5.5,0,0,0-1.008,0l-.437,12.14.438,6.345A.509.509,0,0,0,14.927,26.892Zm5.516-.6v0l.424-6.239-.424-13.6a.606.606,0,0,0-1.212,0l-.377,13.6.378,6.241a.606.606,0,0,0,1.211,0Zm32.1-14.079a7.342,7.342,0,0,0-2.845.571A12.979,12.979,0,0,0,36.775.956a13.141,13.141,0,0,0-4.7.88c-.556.214-.7.435-.708.864V26.044a.889.889,0,0,0,.794.869c.019,0,20.257.012,20.388.012a7.356,7.356,0,0,0,0-14.711ZM29.858,2.68a.819.819,0,0,0-.811.808l-.331,16.569.332,6.013a.81.81,0,0,0,1.62-.006v.007l.36-6.014-.36-16.57A.819.819,0,0,0,29.858,2.68ZM6.041,31.6c-.87-.205-1.105-.314-1.105-.659,0-.243.2-.494.783-.494a1.674,1.674,0,0,1,1.248.565l.792-.769a2.627,2.627,0,0,0-2-.862C4.677,29.383,3.8,30,3.8,30.991c0,1.081.706,1.4,1.717,1.638,1.035.235,1.223.392,1.223.745,0,.416-.306.6-.956.6a1.775,1.775,0,0,1-1.4-.628l-.792.706a2.543,2.543,0,0,0,2.132,1c1.5,0,2.157-.706,2.157-1.748C7.876,32.1,6.911,31.806,6.041,31.6Zm5.05-2.219c-1.5,0-2.382,1.16-2.382,2.831s.885,2.83,2.382,2.83,2.384-1.159,2.384-2.83S12.588,29.383,11.091,29.383Zm0,4.571c-.885,0-1.254-.761-1.254-1.74s.369-1.741,1.254-1.741,1.255.76,1.255,1.741S11.978,33.954,11.091,33.954Zm6.814-1.4c0,.878-.432,1.419-1.129,1.419s-1.121-.557-1.121-1.435V29.469h-1.1v3.082a2.188,2.188,0,0,0,2.219,2.493c1.4,0,2.227-.918,2.227-2.509V29.469h-1.1Zm5.833-.76c0,.3.016,1,.016,1.2-.071-.141-.25-.416-.383-.62l-1.946-2.9h-1.05v5.489h1.082V32.543c0-.306-.016-1-.016-1.2.07.14.251.414.384.619l2.015,2.995h.98V29.469H23.738Zm4.21-2.322H26.231v5.489h1.638a2.609,2.609,0,0,0,2.808-2.744A2.445,2.445,0,0,0,27.948,29.469Zm-.079,4.423h-.54V30.536h.58c1.161,0,1.64.556,1.64,1.678A1.517,1.517,0,0,1,27.869,33.892Zm6.2-3.419a1.044,1.044,0,0,1,1,.6L36.1,30.6a2.071,2.071,0,0,0-2.008-1.216,2.54,2.54,0,0,0-2.438,2.831c0,1.732.964,2.83,2.4,2.83a2.1,2.1,0,0,0,2.031-1.239l-.925-.549a1.148,1.148,0,0,1-1.074.7c-.823,0-1.3-.753-1.3-1.74C32.778,31.2,33.25,30.473,34.072,30.473Zm4.071-1h-1.1v5.489h3.3V33.875h-2.2Zm5.094-.086c-1.5,0-2.384,1.16-2.384,2.831s.885,2.83,2.384,2.83,2.383-1.159,2.383-2.83S44.734,29.383,43.237,29.383Zm0,4.571c-.887,0-1.255-.761-1.255-1.74s.368-1.741,1.255-1.741,1.254.76,1.254,1.741S44.122,33.954,43.237,33.954Zm6.812-1.4c0,.878-.43,1.419-1.127,1.419S47.8,33.413,47.8,32.535V29.469H46.7v3.082a2.188,2.188,0,0,0,2.22,2.493c1.4,0,2.226-.918,2.226-2.509V29.469h-1.1Zm4.187-3.082H52.52v5.489h1.638a2.609,2.609,0,0,0,2.807-2.744A2.445,2.445,0,0,0,54.236,29.469Zm-.078,4.423h-.541V30.536H54.2c1.16,0,1.638.556,1.638,1.678A1.516,1.516,0,0,1,54.158,33.892Z" fill="#000"/></svg>